<?xml version="1.0" encoding="utf-8"?>
<!-- Generator: Adobe Illustrator 16.0.0, SVG Export Plug-In . SVG Version: 6.00 Build 0)  -->
<!DOCTYPE svg PUBLIC "-//W3C//DTD SVG 1.1//EN" "http://www.w3.org/Graphics/SVG/1.1/DTD/svg11.dtd">
<svg version="1.1" id="Capa_1" xmlns="http://www.w3.org/2000/svg" xmlns:xlink="http://www.w3.org/1999/xlink" x="0px" y="0px"
	 width="31.879px" height="32px" viewBox="0 0 31.879 32" enable-background="new 0 0 31.879 32" xml:space="preserve">
<g id="Layer_x0020_1_0">
	<g id="_859866208">
		<ellipse fill="#FEFEFE" cx="16.145" cy="16.874" rx="20.75" ry="20.625"/>
		<g>
			<path fill="#393D42" d="M15.811,6.115c0.105,0.152,0.046-0.172,0.118,0.293l0.048,4.447c-0.002,0.278-0.007,0.557-0.015,0.834
				c-0.003,0.097-0.004,0.285-0.015,0.374c-0.005,0.041-0.021,0.15-0.029,0.181c-0.065,0.264-0.037,0.127-0.1,0.248
				c-0.939,0.114-3.402,0.003-4.63,0.021c-0.502,0.008-1.09,0.139-1.381-0.203c-0.51-0.582-0.934-1.358-1.397-2.01
				C8.181,9.978,7.802,9.7,7.942,9.19c0.136-0.498,0.302-0.866-0.043-1.338c-0.559-0.766-1.82-0.643-2.171,0.23
				C5.529,8.576,5.687,9.139,5.961,9.414c0.363,0.363,0.834,0.257,1.337,0.402c0.216,0.228,0.319,0.496,0.528,0.793
				c0.206,0.294,0.385,0.546,0.577,0.811c0.375,0.517,0.787,1.07,1.1,1.642l6.362,0.018l-0.017,1.667L4.617,14.748
				c-0.729-1.632-2.4-0.892-2.427,0.273c-0.035,1.42,1.879,1.817,2.393,0.35l11.302-0.006l0.008,2.779l-5.068,0.029
				c-0.662-1.848-2.346-1.008-2.451-0.003c-0.073,0.699,0.389,1.203,0.924,1.338c0.908,0.229,1.111-0.426,1.52-0.735l5.074,0.008
				l0.008,2.439l-11.279,0.08C4.35,20.77,4.223,20.366,3.41,20.361c-0.838-0.004-0.942,0.554-1.296,0.99v0.5
				c0.401,0.412,0.422,0.896,1.208,0.942c0.789,0.047,1.05-0.356,1.266-0.909l4.47,0.004l0.649,0.035l6.113-0.047
				c0.049,0.533,0.132,1.213-0.037,1.71l-6.169,0.006c-0.309,0.198-1.707,2.374-2.013,2.843c-0.564,0.859-0.885,0.143-1.614,0.793
				c-1.123,1,0.54,2.922,1.785,1.692c0.763-0.754,0.037-1.228,0.126-1.737c0.058-0.334,1.657-2.502,1.947-2.902
				c0.022-0.014,0.057-0.061,0.07-0.039c0.013,0.021,0.053-0.029,0.071-0.036l0.464-0.108c0.238-0.023,0.498-0.019,0.738-0.019
				l4.63,0.065c0.202,0.406,0.133,1.078,0.144,1.525l0.034,5.113l0.51,0.008L16.495,19.85l5.898-0.05
				c0.197,0.048,1.26,1.74,1.445,2.017c0.207,0.312,0.627,0.74,0.605,1.16c-0.033,0.599-0.434,0.652,0.002,1.381
				c0.488,0.816,1.77,0.681,2.188-0.187c0.555-1.151-0.52-1.731-1.641-1.672l-0.121-0.255c-0.148-0.286-0.367-0.555-0.535-0.866
				c-0.219-0.168-0.979-1.315-1.135-1.634c-0.115-0.23-0.176-0.221-0.254-0.555l-0.277,0.01h-5.467
				c-0.037,0.001-0.365,0.002-0.375,0c-0.449-0.081-0.189,0.123-0.304-0.195l0.015-0.371l-0.054-1.094l11.315-0.045
				c0.166,0.501,0.496,0.936,1.16,0.927c0.84-0.012,0.871-0.505,1.207-0.807c0.012-0.861-0.221-1.59-1.025-1.662
				c-0.994-0.091-1.1,0.715-1.566,0.923l-11.103-0.02l0.004-2.637l5.081,0.064c0.414,0.487,0.531,0.992,1.48,0.846
				c0.578-0.09,1.006-0.611,0.957-1.31c-0.08-1.114-1.658-1.793-2.404-0.186l-5.119-0.03l0.031-2.636l11.17-0.001
				c0.334,0.43,0.551,0.974,1.383,0.923c0.672-0.041,1.125-0.52,1.119-1.218c-0.01-0.99-1.318-2.07-2.479-0.284l-11.223-0.029
				L16.5,8.651l6.379-0.009c0.209-0.447,0.752-1.161,1.057-1.612c0.377-0.559,0.75-1.056,1.059-1.637
				c0.883-0.074,1.465-0.09,1.693-0.894c0.271-0.963-0.43-1.13-0.824-1.607H25.09c-0.299,0.36-0.803,0.513-0.834,1.213
				c-0.043,0.915,0.6,0.478-0.098,1.476c-0.502,0.72-1.156,1.909-1.699,2.463L16.59,8.022c-0.078-0.368-0.206-1.503-0.086-1.796
				c0.438-0.498,0.957-0.465,0.912-1.39c-0.076-1.521-2.233-1.524-2.448-0.177C14.833,5.515,15.338,5.816,15.811,6.115z"/>
			<path fill="#969699" d="M9.845,24.281l5.977-0.035c0,1.01-0.09,6.16,0.103,6.609h0.601l-0.019-0.064l-0.51-0.008l-0.034-5.113
				c-0.011-0.447,0.058-1.119-0.144-1.525l-4.63-0.065c-0.24,0-0.5-0.005-0.738,0.019l-0.464,0.108
				c-0.018,0.007-0.058,0.058-0.071,0.036C9.902,24.221,9.867,24.268,9.845,24.281z"/>
			<path fill="#969699" d="M9.807,12.31c0.291,0.342,0.879,0.211,1.381,0.203c1.228-0.018,3.691,0.093,4.63-0.021
				c0.063-0.121,0.035,0.016,0.1-0.248c0.008-0.031,0.024-0.14,0.029-0.181c0.011-0.089,0.012-0.277,0.015-0.374
				c0.008-0.277,0.013-0.556,0.015-0.834l-0.048-4.447c-0.072-0.465-0.013-0.141-0.118-0.293l0.014,6.274L9.807,12.31z"/>
			<path fill="#FDFDFD" d="M16.525,19.004c0.114,0.318-0.145,0.114,0.304,0.195c0.01,0.002,0.338,0.001,0.375,0h5.467l-0.197-0.278
				l-2.859,0.083C18.584,19.004,17.553,19.004,16.525,19.004z"/>
			<path fill="#E83639" d="M6.741,27.486c-0.868,0.234-0.493,1.41,0.321,1.19C7.826,28.471,7.481,27.286,6.741,27.486z"/>
			<path fill="#E83639" d="M6.411,9.059C7.434,9.416,7.822,8.54,7.285,8.086C6.748,7.631,6.031,8.07,6.411,9.059z"/>
			<path fill="#45BDEA" d="M25.284,3.613c-0.85,0.359-0.266,1.38,0.461,1.149C26.43,4.544,26.088,3.273,25.284,3.613z"/>
			<path fill="#45BDEA" d="M28.665,16.65c-0.652,0.353-0.244,1.375,0.525,1.106C29.913,17.503,29.514,16.192,28.665,16.65z"/>
			<path fill="#E83639" d="M28.805,10.092c-0.83,0.268-0.455,1.43,0.41,1.129C29.932,10.971,29.565,9.847,28.805,10.092z"/>
			<path fill="#45BDEA" d="M3.912,15.528c0.265-0.923-0.4-1.463-0.972-0.881C2.483,15.112,2.885,15.928,3.912,15.528z"/>
			<path fill="#FDFDFD" d="M22.295,14.372c0.873,0.431,1.521-0.38,0.916-0.915C22.635,12.945,21.983,13.615,22.295,14.372z"/>
			<path fill="#FDFDFD" d="M16.504,5.485c0.185-0.248,0.377-0.372,0.267-0.767c-0.099-0.342-0.36-0.49-0.78-0.361
				C15.259,4.583,15.414,5.611,16.504,5.485z"/>
			<path fill="#45BDEA" d="M3.941,21.943l-0.003-0.851C2.2,20.479,2.528,22.881,3.941,21.943z"/>
			<path fill="#FDFDFD" d="M24.924,23.386l-0.025,0.619c0.307,0.188,0.512,0.396,0.945,0.22
				C26.424,23.775,26.09,22.55,24.924,23.386z"/>
			<path fill="#FDFDFD" d="M10.169,18.648l0.009-0.672c-0.277-0.123-0.479-0.309-0.917-0.242c-0.201,0.246-0.456,0.658-0.122,1.002
				C9.547,19.154,9.844,18.82,10.169,18.648z"/>
			<path fill="#FDFDFD" d="M24.336,21.378c0.086-0.127,0.113-0.2,0.186-0.337c-0.207-0.393-0.27-0.411-0.578-0.719
				c-0.211-0.213-0.494-0.437-0.742-0.578C23.358,20.063,24.118,21.21,24.336,21.378z"/>
		</g>
	</g>
</g>
</svg>
